<svg version="1.1" xmlns="http://www.w3.org/2000/svg" xmlns:xlink="http://www.w3.org/1999/xlink" width="512px" height="512px" viewBox="0,0,256,256"><g fill="#ffffff" fill-rule="nonzero" stroke="none" stroke-width="1" stroke-linecap="butt" stroke-linejoin="miter" stroke-miterlimit="10" stroke-dasharray="" stroke-dashoffset="0" font-family="none" font-weight="none" font-size="none" text-anchor="none" style="mix-blend-mode: normal"><g transform="translate(-0.025,0) scale(0.5,0.5)"><path d="M352,0c-12.9,0 -24.6,7.8 -29.6,19.8c-5,12 -2.2,25.7 6.9,34.9l41.4,41.3l-169.3,169.4c-12.5,12.5 -12.5,32.8 0,45.3c12.5,12.5 32.8,12.5 45.3,0l169.3,-169.4l41.4,41.4c9.2,9.2 22.9,11.9 34.9,6.9c12,-5 19.8,-16.6 19.8,-29.6v-128c0,-17.7 -14.3,-32 -32,-32zM80,32c-44.2,0 -80,35.8 -80,80v320c0,44.2 35.8,80 80,80h320c44.2,0 80,-35.8 80,-80v-112c0,-17.7 -14.3,-32 -32,-32c-17.7,0 -32,14.3 -32,32v112c0,8.8 -7.2,16 -16,16h-320c-8.8,0 -16,-7.2 -16,-16v-320c0,-8.8 7.2,-16 16,-16h112c17.7,0 32,-14.3 32,-32c0,-17.7 -14.3,-32 -32,-32z"></path></g></g></svg>